<?xml version="1.0" encoding="iso-8859-1"?>
<!-- Uploaded to: SVG Repo, www.svgrepo.com, Generator: SVG Repo Mixer Tools -->
<svg fill="#000000" height="800px" width="800px" version="1.1" id="Layer_1" xmlns="http://www.w3.org/2000/svg" xmlns:xlink="http://www.w3.org/1999/xlink" 
	 viewBox="0 0 502 502" xml:space="preserve">
<g>
	<g>
		<g>
			<path d="M492,92.5H10c-5.523,0-10,4.477-10,10v65.324v35.647v95.059v35.647V399.5c0,5.523,4.477,10,10,10h482
				c5.522,0,10-4.477,10-10v-65.324v-35.647V203.47v-35.647V102.5C502,96.977,497.522,92.5,492,92.5z M20,213.471h17.189v75.059H20
				V213.471z M20,308.529h27.189c5.523,0,10-4.477,10-10V203.47c0-5.523-4.477-10-10-10H20v-15.647h66.774V210v82v32.176H20V308.529
				z M251,231c-5.523,0-10,4.477-10,10v37.222c-11.078-4.082-19-14.744-19-27.222c0-15.991,13.009-29,29-29c15.99,0,29,13.009,29,29
				c0,12.478-7.922,23.139-19,27.222V241C261,235.477,256.522,231,251,231z M482,288.53h-17.189v-75.059H482V288.53z M482,193.471
				h-27.189c-5.522,0-10,4.477-10,10v95.059c0,5.523,4.478,10,10,10H482v15.647h-66.774V292v-82v-32.176H482V193.471z M482,157.824
				h-76.774c-5.522,0-10,4.477-10,10v33.448C375.086,206.42,360,226.754,360,251c0,24.246,15.086,44.58,35.226,49.728v33.448
				c0,5.523,4.478,10,10,10H482V389.5H261v-90.529c22.239-4.63,39-24.379,39-47.971c0-27.019-21.981-49-49-49
				c-27.019,0-49,21.981-49,49c0,23.592,16.761,43.341,39,47.971V389.5H20v-45.324h76.774c5.523,0,10-4.477,10-10v-33.448
				C126.914,295.58,142,275.246,142,251c0-24.246-15.086-44.58-35.226-49.728v-33.448c0-5.523-4.477-10-10-10H20V112.5h221V141
				c0,5.523,4.477,10,10,10c5.522,0,10-4.477,10-10v-28.5h221V157.824z M395.226,222.541v56.918C386.275,274.693,380,263.73,380,251
				C380,238.27,386.275,227.307,395.226,222.541z M106.774,279.459v-56.918C115.724,227.307,122,238.27,122,251
				S115.724,274.693,106.774,279.459z"/>
			<path d="M251,160c-5.523,0-10,4.477-10,10v13c0,5.523,4.477,10,10,10c5.522,0,10-4.477,10-10v-13
				C261,164.477,256.522,160,251,160z"/>
			<path d="M71.86,241c-2.63,0-5.21,1.07-7.07,2.93c-1.86,1.86-2.93,4.44-2.93,7.07s1.07,5.21,2.93,7.07
				c1.86,1.86,4.44,2.93,7.07,2.93s5.21-1.07,7.07-2.93s2.93-4.44,2.93-7.07s-1.07-5.21-2.93-7.07S74.49,241,71.86,241z"/>
			<path d="M430.14,261c2.63,0,5.21-1.07,7.07-2.93c1.859-1.86,2.93-4.44,2.93-7.07s-1.07-5.21-2.93-7.07s-4.44-2.93-7.07-2.93
				s-5.21,1.07-7.07,2.93c-1.859,1.86-2.93,4.44-2.93,7.07s1.07,5.21,2.93,7.07C424.93,259.93,427.51,261,430.14,261z"/>
		</g>
	</g>
</g>
</svg>