<?xml version="1.0" standalone="no"?>
<!DOCTYPE svg PUBLIC "-//W3C//DTD SVG 20010904//EN"
 "http://www.w3.org/TR/2001/REC-SVG-20010904/DTD/svg10.dtd">
<svg version="1.0" xmlns="http://www.w3.org/2000/svg"
 width="418.000000pt" height="398.000000pt" viewBox="0 0 418.000000 398.000000"
 preserveAspectRatio="xMidYMid meet">

<g transform="translate(0.000000,398.000000) scale(0.100000,-0.100000)"
fill="#000000" stroke="none">
<path d="M320 2000 l0 -1780 1780 0 1780 0 0 1780 0 1780 -1780 0 -1780 0 0
-1780z m3550 0 l0 -1770 -1770 0 -1770 0 0 1770 0 1770 1770 0 1770 0 0 -1770z"/>
<path d="M1183 2491 c-47 -22 -63 -45 -63 -91 0 -46 13 -63 90 -119 38 -28 76
-64 85 -80 26 -52 18 -97 -22 -112 -48 -18 -101 22 -152 116 -8 16 -10 8 -11
-42 0 -72 8 -80 90 -90 61 -7 131 17 154 52 19 29 21 84 4 119 -6 14 -44 48
-84 76 -80 56 -94 73 -94 119 0 38 36 65 74 55 27 -6 86 -69 86 -91 0 -6 5
-15 10 -18 6 -4 10 15 10 49 l0 55 -37 10 c-55 16 -92 13 -140 -8z"/>
<path d="M1985 2501 c-93 -24 -165 -118 -165 -215 0 -197 239 -289 381 -147
85 84 90 214 10 305 -42 47 -154 76 -226 57z m112 -31 c68 -41 114 -201 84
-293 -27 -82 -120 -113 -191 -64 -70 47 -111 197 -80 291 26 78 115 110 187
66z"/>
<path d="M2730 2458 c0 -25 -2 -55 -5 -65 -3 -10 0 -6 7 9 29 58 81 95 119 83
18 -6 19 -20 19 -194 0 -132 -4 -191 -12 -199 -9 -9 2 -12 51 -12 53 0 62 2
52 14 -8 9 -11 72 -9 202 l3 189 35 -3 c40 -3 70 -29 87 -75 11 -30 12 -29 12
33 l1 65 -180 0 -180 0 0 -47z"/>
<path d="M1458 2490 c22 -9 22 -11 22 -204 0 -146 -3 -196 -12 -199 -7 -3 16
-6 51 -6 53 -1 62 1 52 13 -8 9 -11 72 -9 202 l3 189 31 3 c45 4 94 -53 94
-109 0 -51 -24 -97 -53 -103 -12 -3 -31 -7 -42 -9 -11 -3 -2 -5 19 -6 148 -4
215 171 86 223 -29 12 -71 16 -153 15 -77 0 -105 -3 -89 -9z"/>
<path d="M2350 2492 l25 -8 3 -189 c2 -170 1 -191 -15 -202 -14 -11 -6 -13 51
-13 61 0 66 1 52 16 -12 12 -16 37 -16 105 l0 89 29 0 c25 0 34 -9 73 -77 67
-115 88 -133 157 -132 40 0 50 3 36 9 -29 12 -86 76 -139 155 l-46 69 24 21
c52 43 60 98 20 136 -24 23 -33 24 -152 26 -70 1 -116 -1 -102 -5z m185 -22
c13 -14 19 -37 19 -71 1 -42 -3 -54 -23 -70 -13 -10 -36 -19 -52 -19 l-29 0 0
74 c0 41 3 81 6 90 9 23 57 20 79 -4z"/>
<path d="M1663 1901 c-47 -22 -63 -45 -63 -93 1 -42 15 -60 91 -114 72 -50 99
-86 99 -131 0 -98 -115 -77 -173 31 l-22 41 -3 -29 c-7 -60 7 -97 43 -112 71
-29 166 -9 200 42 21 33 22 97 1 129 -9 13 -43 42 -75 64 -71 49 -101 84 -101
121 0 34 22 53 61 53 34 0 72 -32 100 -83 l18 -35 1 57 c0 31 -4 59 -9 62 -5
4 -36 9 -68 11 -45 5 -67 1 -100 -14z"/>
<path d="M764 1894 c13 -13 16 -44 16 -182 0 -189 -3 -209 -34 -215 -11 -2 17
-5 64 -5 60 -1 78 2 63 8 -22 9 -23 15 -23 107 0 97 0 99 24 101 20 1 31 -11
69 -76 25 -43 57 -92 72 -110 25 -30 31 -32 88 -32 60 1 61 1 32 14 -34 14
-83 71 -140 159 l-37 59 25 26 c38 40 50 78 35 110 -20 42 -53 52 -166 52 -94
0 -102 -1 -88 -16z m152 -2 c38 -25 46 -120 14 -152 -11 -11 -33 -20 -50 -20
l-30 0 0 83 c0 46 3 87 7 90 9 9 45 9 59 -1z"/>
<path d="M1224 1894 c13 -13 16 -46 16 -200 0 -182 0 -185 -22 -194 -15 -6 30
-9 135 -9 l157 -1 0 33 c0 17 3 43 6 57 5 22 3 21 -16 -8 -37 -54 -121 -86
-174 -66 -13 5 -16 24 -16 100 l0 94 58 0 c65 0 77 -6 91 -40 8 -20 10 -11 10
45 1 63 -1 67 -12 45 -11 -22 -19 -25 -80 -28 l-68 -3 3 88 3 88 54 -1 c50 0
57 -3 88 -39 l33 -38 0 46 0 47 -141 0 c-128 0 -139 -1 -125 -16z"/>
<path d="M1953 1899 c15 -9 17 -30 17 -200 0 -187 0 -190 -22 -199 -15 -6 30
-9 135 -9 l157 -1 0 24 c0 13 3 39 6 57 l6 34 -22 -33 c-39 -57 -145 -93 -178
-60 -8 8 -12 45 -12 100 l0 88 58 0 c62 0 87 -12 95 -45 3 -11 5 12 6 50 1 63
-1 67 -12 45 -11 -22 -19 -25 -80 -28 l-67 -3 0 85 c0 83 1 86 25 92 45 11 92
-5 124 -42 l31 -35 0 46 0 45 -142 0 c-102 -1 -138 -4 -125 -11z"/>
<path d="M2343 1899 c15 -9 17 -30 17 -200 0 -187 0 -190 -22 -199 -17 -6 0
-9 57 -9 44 1 73 3 65 6 -26 10 -30 25 -30 114 0 85 0 87 26 93 15 4 27 6 29
4 1 -2 21 -36 44 -76 23 -40 56 -88 73 -107 29 -33 33 -35 92 -34 33 1 52 4
40 6 -28 5 -82 62 -143 152 l-50 74 29 27 c52 49 52 118 0 145 -35 18 -258 22
-227 4z m173 -20 c13 -15 19 -36 19 -71 0 -41 -4 -53 -24 -69 -14 -11 -36 -19
-50 -17 -24 3 -26 7 -29 58 -2 30 -1 70 3 88 5 27 10 32 34 32 16 0 36 -9 47
-21z"/>
<path d="M2705 1901 c13 -5 49 -72 112 -207 50 -109 97 -199 104 -199 7 0 43
83 81 185 47 127 77 192 94 208 l25 22 -63 0 c-59 0 -61 -1 -40 -16 12 -8 22
-24 22 -34 0 -18 -72 -228 -89 -258 -7 -13 -14 -5 -34 38 -13 30 -43 97 -67
149 -40 89 -42 95 -24 108 15 11 7 13 -62 12 -49 0 -71 -3 -59 -8z"/>
<path d="M3200 1900 c12 -7 16 -41 18 -172 4 -183 -1 -225 -26 -231 -9 -3 54
-5 141 -6 l157 -1 0 51 0 51 -26 -32 c-32 -38 -74 -60 -113 -60 -59 0 -61 4
-61 106 l0 94 58 0 c59 0 81 -11 95 -50 3 -8 6 17 6 55 1 63 -1 67 -12 45 -11
-22 -19 -25 -80 -28 l-68 -3 3 88 c3 76 5 88 21 91 41 8 92 -10 124 -45 l33
-34 0 45 0 46 -142 0 c-94 0 -138 -4 -128 -10z"/>
</g>
</svg>
